<?xml version="1.0" encoding="utf-8"?>
<!-- Generator: Adobe Illustrator 23.0.2, SVG Export Plug-In . SVG Version: 6.00 Build 0)  -->
<svg version="1.1" id="Layer_1" xmlns="http://www.w3.org/2000/svg" xmlns:xlink="http://www.w3.org/1999/xlink" x="0px" y="0px"
	 viewBox="0 0 240 34" style="enable-background:new 0 0 240 34;" xml:space="preserve">
<style type="text/css">
	.st0{fill:#002942;}
</style>
<path class="st0" d="M239,1v32H1V1H239 M240,0H0v34h240V0L240,0z"/>
<g>
	<path class="st0" d="M25.8,21.1v-8.3h4.6c0.3,0,0.6,0,1,0.1c0.3,0.1,0.6,0.2,0.8,0.4c0.2,0.2,0.4,0.4,0.6,0.7
		c0.1,0.3,0.2,0.6,0.2,1c0,0.2,0,0.4-0.1,0.6c-0.1,0.2-0.1,0.3-0.2,0.5c-0.1,0.1-0.2,0.3-0.3,0.4c-0.1,0.1-0.2,0.2-0.3,0.2
		c0.1,0.1,0.3,0.2,0.4,0.3s0.3,0.3,0.4,0.4c0.1,0.2,0.2,0.4,0.3,0.6c0.1,0.2,0.1,0.4,0.1,0.7c0,0.5-0.1,0.9-0.3,1.2
		c-0.2,0.3-0.4,0.5-0.7,0.7c-0.3,0.2-0.6,0.3-1,0.3c-0.4,0.1-0.7,0.1-1.1,0.1H25.8z M26.7,16.4h3.6c0.5,0,0.9-0.1,1.2-0.4
		c0.3-0.2,0.4-0.6,0.4-1c0-0.3-0.1-0.6-0.4-0.9s-0.7-0.4-1.2-0.4h-3.6V16.4z M26.7,20.2h3.6c0.3,0,0.6,0,0.8-0.1s0.5-0.1,0.6-0.2
		s0.3-0.2,0.4-0.4c0.1-0.2,0.1-0.4,0.1-0.6c0-0.5-0.2-0.8-0.5-1.1c-0.4-0.2-0.8-0.4-1.5-0.4h-3.6V20.2z"/>
	<path class="st0" d="M36.4,17c0-0.6,0.1-1.1,0.3-1.7c0.2-0.5,0.5-1,0.9-1.4c0.4-0.4,0.9-0.7,1.4-0.9c0.5-0.2,1.1-0.3,1.8-0.3
		c0.6,0,1.2,0.1,1.8,0.3c0.5,0.2,1,0.5,1.4,0.9c0.4,0.4,0.7,0.8,0.9,1.4c0.2,0.5,0.3,1.1,0.3,1.7c0,0.6-0.1,1.1-0.3,1.7
		c-0.2,0.5-0.5,1-0.9,1.4c-0.4,0.4-0.9,0.7-1.4,0.9c-0.5,0.2-1.1,0.3-1.8,0.3s-1.2-0.1-1.8-0.3c-0.5-0.2-1-0.5-1.4-0.9
		c-0.4-0.4-0.7-0.8-0.9-1.4C36.6,18.1,36.4,17.6,36.4,17z M37.4,17c0,0.5,0.1,0.9,0.3,1.3c0.2,0.4,0.4,0.8,0.7,1.1s0.7,0.5,1.1,0.7
		c0.4,0.2,0.9,0.3,1.4,0.3c0.5,0,0.9-0.1,1.4-0.3c0.4-0.2,0.8-0.4,1.1-0.7s0.5-0.7,0.7-1.1c0.2-0.4,0.3-0.8,0.3-1.3
		s-0.1-0.9-0.3-1.3c-0.2-0.4-0.4-0.8-0.7-1.1s-0.7-0.5-1.1-0.7c-0.4-0.2-0.9-0.3-1.4-0.3c-0.5,0-1,0.1-1.4,0.3
		c-0.4,0.2-0.8,0.4-1.1,0.7s-0.5,0.7-0.7,1.1C37.5,16.1,37.4,16.5,37.4,17z"/>
	<path class="st0" d="M48.5,17c0-0.6,0.1-1.1,0.3-1.7c0.2-0.5,0.5-1,0.9-1.4c0.4-0.4,0.9-0.7,1.4-0.9c0.5-0.2,1.1-0.3,1.8-0.3
		c0.6,0,1.2,0.1,1.8,0.3c0.5,0.2,1,0.5,1.4,0.9c0.4,0.4,0.7,0.8,0.9,1.4c0.2,0.5,0.3,1.1,0.3,1.7c0,0.6-0.1,1.1-0.3,1.7
		c-0.2,0.5-0.5,1-0.9,1.4c-0.4,0.4-0.9,0.7-1.4,0.9c-0.5,0.2-1.1,0.3-1.8,0.3s-1.2-0.1-1.8-0.3c-0.5-0.2-1-0.5-1.4-0.9
		c-0.4-0.4-0.7-0.8-0.9-1.4C48.7,18.1,48.5,17.6,48.5,17z M49.5,17c0,0.5,0.1,0.9,0.3,1.3c0.2,0.4,0.4,0.8,0.7,1.1s0.7,0.5,1.1,0.7
		c0.4,0.2,0.9,0.3,1.4,0.3c0.5,0,0.9-0.1,1.4-0.3c0.4-0.2,0.8-0.4,1.1-0.7s0.5-0.7,0.7-1.1c0.2-0.4,0.3-0.8,0.3-1.3
		s-0.1-0.9-0.3-1.3c-0.2-0.4-0.4-0.8-0.7-1.1s-0.7-0.5-1.1-0.7c-0.4-0.2-0.9-0.3-1.4-0.3c-0.5,0-1,0.1-1.4,0.3
		c-0.4,0.2-0.8,0.4-1.1,0.7s-0.5,0.7-0.7,1.1C49.6,16.1,49.5,16.5,49.5,17z"/>
	<path class="st0" d="M61.2,21.1v-8.3h1v4.5l4.6-4.5h1.3l-2.9,2.9l3.4,5.4h-1.2l-2.9-4.6l-2.3,2.1v2.5H61.2z"/>
	<path class="st0" d="M75.2,21.1l3.9-8.3h1l3.9,8.3h-1.1l-1.3-2.8h-4l-1.3,2.8H75.2z M78.1,17.3h3.1l-1.5-3.3L78.1,17.3z"/>
	<path class="st0" d="M86.9,21.1v-8.3h1l5.3,6.8h0v-6.8h1v8.3h-1l-5.3-6.7h0v6.7H86.9z"/>
	<path class="st0" d="M102.3,21.1l3.9-8.3h1l3.9,8.3H110l-1.3-2.8h-4l-1.3,2.8H102.3z M105.2,17.3h3.1l-1.5-3.3L105.2,17.3z"/>
	<path class="st0" d="M114,21.1v-8.3h4.6c0.3,0,0.5,0,0.8,0.1c0.3,0.1,0.6,0.2,0.8,0.4c0.3,0.2,0.5,0.4,0.7,0.7
		c0.2,0.3,0.3,0.7,0.3,1.2c0,0.4-0.1,0.8-0.2,1.1c-0.1,0.3-0.3,0.5-0.6,0.7c-0.2,0.2-0.5,0.3-0.8,0.4c-0.3,0.1-0.7,0.1-1,0.1h-3.6
		v3.5H114z M114.9,16.6h3.6c0.2,0,0.4,0,0.6-0.1c0.2,0,0.4-0.1,0.5-0.2s0.3-0.2,0.3-0.4c0.1-0.2,0.1-0.4,0.1-0.7
		c0-0.3,0-0.5-0.1-0.7c-0.1-0.2-0.2-0.3-0.4-0.4c-0.2-0.1-0.3-0.2-0.5-0.2c-0.2,0-0.4-0.1-0.6-0.1h-3.6V16.6z"/>
	<path class="st0" d="M124.4,21.1v-8.3h4.6c0.3,0,0.5,0,0.8,0.1c0.3,0.1,0.6,0.2,0.8,0.4c0.3,0.2,0.5,0.4,0.7,0.7
		c0.2,0.3,0.3,0.7,0.3,1.2c0,0.4-0.1,0.8-0.2,1.1c-0.1,0.3-0.3,0.5-0.6,0.7c-0.2,0.2-0.5,0.3-0.8,0.4c-0.3,0.1-0.7,0.1-1,0.1h-3.6
		v3.5H124.4z M125.4,16.6h3.6c0.2,0,0.4,0,0.6-0.1s0.4-0.1,0.5-0.2c0.1-0.1,0.3-0.2,0.3-0.4s0.1-0.4,0.1-0.7c0-0.3,0-0.5-0.1-0.7
		c-0.1-0.2-0.2-0.3-0.4-0.4c-0.2-0.1-0.3-0.2-0.5-0.2c-0.2,0-0.4-0.1-0.6-0.1h-3.6V16.6z"/>
	<path class="st0" d="M134.4,17c0-0.6,0.1-1.1,0.3-1.7c0.2-0.5,0.5-1,0.9-1.4c0.4-0.4,0.9-0.7,1.4-0.9c0.5-0.2,1.1-0.3,1.8-0.3
		c0.6,0,1.2,0.1,1.8,0.3c0.5,0.2,1,0.5,1.4,0.9c0.4,0.4,0.7,0.8,0.9,1.4c0.2,0.5,0.3,1.1,0.3,1.7c0,0.6-0.1,1.1-0.3,1.7
		c-0.2,0.5-0.5,1-0.9,1.4c-0.4,0.4-0.9,0.7-1.4,0.9c-0.5,0.2-1.1,0.3-1.8,0.3c-0.6,0-1.2-0.1-1.8-0.3c-0.5-0.2-1-0.5-1.4-0.9
		c-0.4-0.4-0.7-0.8-0.9-1.4C134.5,18.1,134.4,17.6,134.4,17z M135.3,17c0,0.5,0.1,0.9,0.3,1.3c0.2,0.4,0.4,0.8,0.7,1.1
		c0.3,0.3,0.7,0.5,1.1,0.7c0.4,0.2,0.9,0.3,1.4,0.3c0.5,0,0.9-0.1,1.4-0.3c0.4-0.2,0.8-0.4,1.1-0.7c0.3-0.3,0.5-0.7,0.7-1.1
		c0.2-0.4,0.3-0.8,0.3-1.3s-0.1-0.9-0.3-1.3c-0.2-0.4-0.4-0.8-0.7-1.1c-0.3-0.3-0.7-0.5-1.1-0.7c-0.4-0.2-0.9-0.3-1.4-0.3
		c-0.5,0-1,0.1-1.4,0.3c-0.4,0.2-0.8,0.4-1.1,0.7c-0.3,0.3-0.5,0.7-0.7,1.1C135.4,16.1,135.3,16.5,135.3,17z"/>
	<path class="st0" d="M147.1,21.1v-8.3h1v8.3H147.1z"/>
	<path class="st0" d="M152.4,21.1v-8.3h1l5.3,6.8h0v-6.8h1v8.3h-1l-5.3-6.7h0v6.7H152.4z"/>
	<path class="st0" d="M163.1,13.8v-1h7v1h-3v7.3h-1v-7.3H163.1z"/>
	<path class="st0" d="M173.6,21.1v-8.3h1l3.1,5.6l3.1-5.6h1v8.3h-1v-6.3h0l-3,5.6l-3-5.6h0v6.3H173.6z"/>
	<path class="st0" d="M186,21.1v-8.3h6.8v1h-5.8v2.5h3.1v1h-3.1v2.8h6v1H186z"/>
	<path class="st0" d="M196.5,21.1v-8.3h1l5.3,6.8h0v-6.8h1v8.3h-1l-5.3-6.7h0v6.7H196.5z"/>
	<path class="st0" d="M207.2,13.8v-1h7v1h-3v7.3h-1v-7.3H207.2z"/>
</g>
</svg>
